HIERARCHY
ROOT mixamorig:Hips
{
	OFFSET -0.000007 99.791939 0.000048
	CHANNELS 6 Xposition Yposition Zposition Xrotation Yrotation Zrotation
	JOINT mixamorig:Spine
	{
		OFFSET -0.000008 9.923462 -1.227335
		CHANNELS 3 Xrotation Yrotation Zrotation
		JOINT mixamorig:Spine1
		{
			OFFSET -0.001162 11.645439 -1.422341
			CHANNELS 3 Xrotation Yrotation Zrotation
			JOINT mixamorig:Spine2
			{
				OFFSET -0.001082 13.360199 -1.626459
				CHANNELS 3 Xrotation Yrotation Zrotation
				JOINT mixamorig:Neck
				{
					OFFSET -0.001294 15.032486 0.792904
					CHANNELS 3 Xrotation Yrotation Zrotation
					JOINT mixamorig:Head
					{
						OFFSET -0.000902 10.321838 3.142429
						CHANNELS 3 Xrotation Yrotation Zrotation
						JOINT mixamorig:HeadTop_End
						{
							OFFSET -0.001464 18.474670 6.636400
							CHANNELS 3 Xrotation Yrotation Zrotation
							End Site
							{
								OFFSET -0.001724 19.630463 0.000000
							}
						}
					}
				}
				JOINT mixamorig:LeftShoulder
				{
					OFFSET 6.105025 9.110947 0.705547
					CHANNELS 3 Xrotation Yrotation Zrotation
					JOINT mixamorig:LeftArm
					{
						OFFSET 12.655060 -0.264816 -2.600928
						CHANNELS 3 Xrotation Yrotation Zrotation
						JOINT mixamorig:LeftForeArm
						{
							OFFSET 27.404680 0.002457 -0.000007
							CHANNELS 3 Xrotation Yrotation Zrotation
							JOINT mixamorig:LeftHand
							{
								OFFSET 27.614456 0.002457 0.000007
								CHANNELS 3 Xrotation Yrotation Zrotation
								JOINT mixamorig:LeftHandThumb1
								{
									OFFSET 3.789009 -2.166824 3.002973
									CHANNELS 3 Xrotation Yrotation Zrotation
									JOINT mixamorig:LeftHandThumb2
									{
										OFFSET 3.675636 -2.121704 2.122010
										CHANNELS 3 Xrotation Yrotation Zrotation
										JOINT mixamorig:LeftHandThumb3
										{
											OFFSET 3.394531 -1.959473 1.959746
											CHANNELS 3 Xrotation Yrotation Zrotation
											JOINT mixamorig:LeftHandThumb4
											{
												OFFSET 2.679504 -1.546753 1.546951
												CHANNELS 3 Xrotation Yrotation Zrotation
												End Site
												{
													OFFSET 2.400604 -1.530380 1.964751
												}
											}
										}
									}
								}
								JOINT mixamorig:LeftHandIndex1
								{
									OFFSET 12.266647 -0.230743 2.822040
									CHANNELS 3 Xrotation Yrotation Zrotation
									JOINT mixamorig:LeftHandIndex2
									{
										OFFSET 3.891968 0.000336 0.000037
										CHANNELS 3 Xrotation Yrotation Zrotation
										JOINT mixamorig:LeftHandIndex3
										{
											OFFSET 3.415161 0.000305 -0.000010
											CHANNELS 3 Xrotation Yrotation Zrotation
											JOINT mixamorig:LeftHandIndex4
											{
												OFFSET 3.077995 0.000275 -0.000009
												CHANNELS 3 Xrotation Yrotation Zrotation
												End Site
												{
													OFFSET 3.077988 0.000259 0.000131
												}
											}
										}
									}
								}
								JOINT mixamorig:LeftHandMiddle1
								{
									OFFSET 12.775536 0.001129 0.000014
									CHANNELS 3 Xrotation Yrotation Zrotation
									JOINT mixamorig:LeftHandMiddle2
									{
										OFFSET 3.613968 0.000320 0.000000
										CHANNELS 3 Xrotation Yrotation Zrotation
										JOINT mixamorig:LeftHandMiddle3
										{
											OFFSET 3.459763 0.000305 -0.000028
											CHANNELS 3 Xrotation Yrotation Zrotation
											JOINT mixamorig:LeftHandMiddle4
											{
												OFFSET 3.680191 0.000320 0.000031
												CHANNELS 3 Xrotation Yrotation Zrotation
												End Site
												{
													OFFSET 3.680191 0.000351 -0.004814
												}
											}
										}
									}
								}
								JOINT mixamorig:LeftHandRing1
								{
									OFFSET 12.147018 0.011063 -2.216636
									CHANNELS 3 Xrotation Yrotation Zrotation
									JOINT mixamorig:LeftHandRing2
									{
										OFFSET 3.601181 0.000320 0.000033
										CHANNELS 3 Xrotation Yrotation Zrotation
										JOINT mixamorig:LeftHandRing3
										{
											OFFSET 3.307320 0.000305 -0.000023
											CHANNELS 3 Xrotation Yrotation Zrotation
											JOINT mixamorig:LeftHandRing4
											{
												OFFSET 3.660118 0.000320 0.000000
												CHANNELS 3 Xrotation Yrotation Zrotation
												End Site
												{
													OFFSET 3.660103 0.000229 0.005616
												}
											}
										}
									}
								}
								JOINT mixamorig:LeftHandPinky1
								{
									OFFSET 10.908218 -0.225174 -4.725837
									CHANNELS 3 Xrotation Yrotation Zrotation
									JOINT mixamorig:LeftHandPinky2
									{
										OFFSET 4.136658 0.000351 0.001166
										CHANNELS 3 Xrotation Yrotation Zrotation
										JOINT mixamorig:LeftHandPinky3
										{
											OFFSET 2.594826 0.000244 -0.001180
											CHANNELS 3 Xrotation Yrotation Zrotation
											JOINT mixamorig:LeftHandPinky4
											{
												OFFSET 2.923874 0.000244 0.000018
												CHANNELS 3 Xrotation Yrotation Zrotation
												End Site
												{
													OFFSET 2.923851 0.000275 -0.003346
												}
											}
										}
									}
								}
							}
						}
					}
				}
				JOINT mixamorig:RightShoulder
				{
					OFFSET -6.106495 9.109970 0.705565
					CHANNELS 3 Xrotation Yrotation Zrotation
					JOINT mixamorig:RightArm
					{
						OFFSET -12.655020 -0.267136 -2.600890
						CHANNELS 3 Xrotation Yrotation Zrotation
						JOINT mixamorig:RightForeArm
						{
							OFFSET -27.404675 -0.002365 0.000019
							CHANNELS 3 Xrotation Yrotation Zrotation
							JOINT mixamorig:RightHand
							{
								OFFSET -27.614464 -0.002396 0.000031
								CHANNELS 3 Xrotation Yrotation Zrotation
								JOINT mixamorig:RightHandThumb1
								{
									OFFSET -3.788620 -2.167480 3.002977
									CHANNELS 3 Xrotation Yrotation Zrotation
									JOINT mixamorig:RightHandThumb2
									{
										OFFSET -3.675247 -2.122314 2.122009
										CHANNELS 3 Xrotation Yrotation Zrotation
										JOINT mixamorig:RightHandThumb3
										{
											OFFSET -3.394188 -1.960129 1.959755
											CHANNELS 3 Xrotation Yrotation Zrotation
											JOINT mixamorig:RightHandThumb4
											{
												OFFSET -2.679230 -1.547195 1.546953
												CHANNELS 3 Xrotation Yrotation Zrotation
												End Site
												{
													OFFSET -2.398781 -1.531693 1.965949
												}
											}
										}
									}
								}
								JOINT mixamorig:RightHandIndex1
								{
									OFFSET -12.266594 -0.232895 2.822051
									CHANNELS 3 Xrotation Yrotation Zrotation
									JOINT mixamorig:RightHandIndex2
									{
										OFFSET -3.891968 -0.000336 0.000040
										CHANNELS 3 Xrotation Yrotation Zrotation
										JOINT mixamorig:RightHandIndex3
										{
											OFFSET -3.415161 -0.000305 -0.000006
											CHANNELS 3 Xrotation Yrotation Zrotation
											JOINT mixamorig:RightHandIndex4
											{
												OFFSET -3.077988 -0.000275 0.000006
												CHANNELS 3 Xrotation Yrotation Zrotation
												End Site
												{
													OFFSET -3.077980 0.000229 -0.008454
												}
											}
										}
									}
								}
								JOINT mixamorig:RightHandMiddle1
								{
									OFFSET -12.775528 -0.001114 0.000025
									CHANNELS 3 Xrotation Yrotation Zrotation
									JOINT mixamorig:RightHandMiddle2
									{
										OFFSET -3.613968 -0.000320 0.000005
										CHANNELS 3 Xrotation Yrotation Zrotation
										JOINT mixamorig:RightHandMiddle3
										{
											OFFSET -3.459763 -0.000305 -0.000025
											CHANNELS 3 Xrotation Yrotation Zrotation
											JOINT mixamorig:RightHandMiddle4
											{
												OFFSET -3.680191 -0.000320 0.000034
												CHANNELS 3 Xrotation Yrotation Zrotation
												End Site
												{
													OFFSET -3.680168 -0.000031 0.012581
												}
											}
										}
									}
								}
								JOINT mixamorig:RightHandRing1
								{
									OFFSET -12.147003 0.008942 -2.216624
									CHANNELS 3 Xrotation Yrotation Zrotation
									JOINT mixamorig:RightHandRing2
									{
										OFFSET -3.601196 -0.000320 0.000037
										CHANNELS 3 Xrotation Yrotation Zrotation
										JOINT mixamorig:RightHandRing3
										{
											OFFSET -3.307312 -0.000290 -0.000019
											CHANNELS 3 Xrotation Yrotation Zrotation
											JOINT mixamorig:RightHandRing4
											{
												OFFSET -3.660118 -0.000320 0.000002
												CHANNELS 3 Xrotation Yrotation Zrotation
												End Site
												{
													OFFSET -3.660110 0.000107 0.002180
												}
											}
										}
									}
								}
								JOINT mixamorig:RightHandPinky1
								{
									OFFSET -10.908173 -0.227081 -4.725826
									CHANNELS 3 Xrotation Yrotation Zrotation
									JOINT mixamorig:RightHandPinky2
									{
										OFFSET -4.136642 -0.000366 0.000029
										CHANNELS 3 Xrotation Yrotation Zrotation
										JOINT mixamorig:RightHandPinky3
										{
											OFFSET -2.594841 -0.000229 -0.000036
											CHANNELS 3 Xrotation Yrotation Zrotation
											JOINT mixamorig:RightHandPinky4
											{
												OFFSET -2.923874 -0.000259 0.000021
												CHANNELS 3 Xrotation Yrotation Zrotation
												End Site
												{
													OFFSET -2.923820 0.000336 -0.012876
												}
											}
										}
									}
								}
							}
						}
					}
				}
			}
		}
	}
	JOINT mixamorig:LeftUpLeg
	{
		OFFSET 9.124458 -6.656387 -0.055378
		CHANNELS 3 Xrotation Yrotation Zrotation
		JOINT mixamorig:LeftLeg
		{
			OFFSET 0.244681 -40.595421 -0.515619
			CHANNELS 3 Xrotation Yrotation Zrotation
			JOINT mixamorig:LeftFoot
			{
				OFFSET -0.244669 -42.047928 -2.059156
				CHANNELS 3 Xrotation Yrotation Zrotation
				JOINT mixamorig:LeftToeBase
				{
					OFFSET 0.373535 -7.208548 13.966561
					CHANNELS 3 Xrotation Yrotation Zrotation
					JOINT mixamorig:LeftToe_End
					{
						OFFSET -0.142059 -0.175224 9.997455
						CHANNELS 3 Xrotation Yrotation Zrotation
						End Site
						{
							OFFSET -0.142060 -0.175223 9.997459
						}
					}
				}
			}
		}
	}
	JOINT mixamorig:RightUpLeg
	{
		OFFSET -9.124448 -6.656403 -0.055378
		CHANNELS 3 Xrotation Yrotation Zrotation
		JOINT mixamorig:RightLeg
		{
			OFFSET -0.244680 -40.595459 -0.514290
			CHANNELS 3 Xrotation Yrotation Zrotation
			JOINT mixamorig:RightFoot
			{
				OFFSET 0.244670 -42.047859 -2.060535
				CHANNELS 3 Xrotation Yrotation Zrotation
				JOINT mixamorig:RightToeBase
				{
					OFFSET -0.373535 -7.208539 13.966558
					CHANNELS 3 Xrotation Yrotation Zrotation
					JOINT mixamorig:RightToe_End
					{
						OFFSET 0.141798 -0.175009 9.997463
						CHANNELS 3 Xrotation Yrotation Zrotation
						End Site
						{
							OFFSET 0.141798 -0.175009 9.997467
						}
					}
				}
			}
		}
	}
}
MOTION
Frames: 4
Frame Time: 0.033333
26.238125 76.270058 315.527161 -7.325603 8.806939 1.337022 24.736585 4.130025 1.644965 2.895329 0.945953 -0.088002 2.902771 0.929994 -0.112165 -4.924029 -1.660668 1.176786 -43.382390 -11.523896 -7.667631 -0.000002 -0.000000 0.000000 0.497366 -1.663775 -3.825859 25.073503 3.220399 -77.728782 -217.004276 -123.290911 -212.512662 -5.704039 0.786683 7.688670 22.596200 -7.369274 7.455454 21.387711 18.669929 -3.094091 -19.363258 -18.022526 14.745265 0.000001 -0.000003 0.000003 4.838161 8.083844 -40.678797 3.988134 5.547572 -71.411465 3.097909 5.165562 -61.896520 -0.000002 0.000000 0.000000 6.860575 7.767999 -64.318491 4.927426 5.784590 -80.883688 3.887223 5.517446 -70.347178 -0.000001 0.000002 0.000000 -5.938026 7.215087 -89.883923 5.829980 5.852804 -89.818593 4.347827 5.656294 -75.133747 -0.000002 -0.000005 -0.000005 7.290708 15.942870 -89.650413 6.249591 5.821988 -94.172681 4.680548 5.759601 -78.441806 0.000001 -0.000000 0.000001 0.468321 -2.020024 7.469793 20.763608 -27.865792 78.904968 -426.325846 46.934017 396.504530 -6.700161 -6.752661 -54.371752 17.215811 -15.216985 -25.317100 19.801127 -8.434163 9.687030 -24.068463 -21.668697 -36.686022 -0.000000 0.000002 0.000002 6.863609 -9.697368 58.624244 3.744194 -4.566045 78.676771 3.141326 -4.403601 70.979879 -0.000001 0.000002 0.000001 -2.759266 -9.540390 55.664000 3.819884 -4.580998 79.626270 2.713190 -4.232415 65.299142 -0.000000 0.000002 0.000001 -6.694451 -6.136382 83.125076 4.317827 -4.643893 85.816505 2.860587 -4.297348 67.286133 -0.000001 0.000001 -0.000003 -7.401263 -8.428315 101.020520 4.106778 -4.623830 83.210958 2.246169 -3.986112 58.784576 -0.000003 0.000002 -0.000001 -36.430101 -3.395525 37.562540 63.527712 -15.030306 -3.411356 -16.442482 4.537239 -21.717705 -0.893306 -6.752659 1.480660 -0.000000 0.000001 0.000000 -25.664805 0.007894 -34.846642 74.204821 0.479297 1.917972 -33.055141 -4.803209 13.614118 -2.459240 -0.180101 1.880873 -0.000000 -0.000000 -0.000001 
27.382969 76.198204 315.327118 -8.135589 8.768232 5.732473 26.151717 0.793313 0.256689 3.092140 0.332454 -1.156268 3.091686 0.381417 -1.186362 -5.635789 -1.420652 0.390590 -43.123328 -10.870330 -6.134136 -0.000003 0.000000 -0.000000 0.516549 -0.968015 -6.338315 17.353458 10.671607 -74.573488 -214.106514 -133.965841 -206.347514 -5.144767 -4.039880 15.705496 36.890367 -8.476036 9.246190 16.879014 22.239034 -1.029141 -18.686038 -16.742088 9.689818 0.000003 0.000001 0.000006 4.507447 8.159450 -32.820999 3.450877 5.337712 -65.751718 2.603213 4.870191 -56.244429 -0.000001 -0.000002 0.000001 5.182884 7.695267 -54.920759 4.781702 5.759501 -79.434601 3.748666 5.466290 -68.899465 -0.000002 0.000001 -0.000000 -6.457829 5.696265 -82.765944 5.770746 5.852308 -89.237542 4.290689 5.640827 -74.553106 -0.000001 0.000001 -0.000001 6.178018 16.121044 -78.433453 6.156384 5.827583 -93.256685 4.589249 5.740245 -77.526103 0.000000 0.000001 -0.000002 0.289359 -2.941111 4.767591 23.372419 -19.294963 81.459336 -417.970093 46.893135 395.312962 -8.514959 -15.572770 -43.848828 30.802019 -14.073209 -26.728735 15.630152 -11.892674 7.494174 -19.846102 -22.671111 -31.381974 -0.000001 0.000002 0.000002 6.267429 -10.200402 50.740970 3.299083 -4.454215 73.022229 2.715372 -4.233377 65.328232 -0.000002 0.000003 -0.000005 -4.609544 -8.079769 46.356812 3.704635 -4.558487 78.179875 2.607163 -4.182175 63.854141 0.000001 -0.000001 -0.000001 -7.094143 -4.680962 76.006912 4.270884 -4.640226 85.236574 2.817281 -4.279020 66.706776 -0.000001 -0.000000 -0.000001 -6.787202 -6.259547 90.367904 4.033147 -4.614507 82.296738 2.183039 -3.947256 57.871926 0.000003 0.000000 0.000000 -36.213632 0.465719 33.809693 63.849326 -15.880420 -3.711934 -17.406932 4.539205 -20.639095 -0.057671 -7.490367 2.753825 -0.000000 -0.000001 0.000000 -24.198320 3.589471 -38.814903 74.659917 -1.212608 1.664530 -32.628507 -4.941589 14.194445 -2.523176 -0.584333 1.702731 0.000000 0.000000 0.000001 
28.345852 76.362625 315.261932 -8.492947 8.755985 9.691626 26.765473 -2.344380 -0.870666 3.126397 -0.204213 -2.315700 3.126312 -0.077341 -2.356772 -6.255483 -1.277793 -0.146511 -42.378783 -10.521327 -4.565783 -0.000000 0.000000 -0.000000 0.583263 0.158295 -9.591675 4.952264 15.840484 -66.810014 -221.307445 -152.597696 -202.543550 -2.151119 -12.714025 33.060643 48.424723 -8.387635 8.261913 18.559439 20.928821 -1.797436 -18.588975 -16.581799 9.071924 0.000003 0.000003 -0.000001 3.810678 7.967119 -25.309946 2.784039 4.985213 -58.349404 2.004419 4.412897 -48.853673 0.000001 -0.000002 0.000001 3.683201 7.283468 -47.592881 4.654087 5.734415 -78.160006 3.627904 5.418398 -67.626215 0.000001 -0.000003 -0.000002 -6.757000 4.221664 -76.098006 5.736014 5.851711 -88.896838 4.257243 5.631507 -74.212724 -0.000001 0.000002 0.000000 3.918718 15.974557 -69.054032 6.122492 5.829247 -92.923726 4.556116 5.732854 -77.193309 0.000000 0.000000 -0.000001 0.199194 -2.938269 3.308462 26.541241 -12.170402 81.434713 -412.222598 47.211258 399.426840 -6.860720 -25.300315 -24.963621 42.622201 -14.392363 -24.980845 17.186837 -10.623902 8.302542 -19.259807 -22.343977 -30.596396 -0.000000 0.000004 0.000002 5.262736 -10.376150 43.181836 2.737176 -4.242816 65.623262 2.187055 -3.948896 57.934218 -0.000001 -0.000002 0.000001 -6.076197 -6.578320 39.178272 3.603748 -4.536271 76.907623 2.514980 -4.135783 62.583220 -0.000002 0.000002 0.000000 -7.289013 -3.278391 69.331789 4.243367 -4.637862 84.896540 2.791958 -4.268054 66.367056 -0.000004 0.000000 0.000000 -7.286427 -4.414329 81.507523 4.006400 -4.610806 81.964463 2.160250 -3.932898 57.540211 0.000001 0.000001 -0.000001 -35.669283 3.944154 30.527817 63.318101 -16.873528 -4.369458 -17.582710 4.402309 -19.588638 0.432559 -8.389680 3.598039 0.000000 -0.000001 -0.000000 -22.537295 6.334257 -42.466124 74.257619 -2.274707 1.335215 -32.054679 -5.178066 15.156902 -2.039842 -1.265461 0.863277 -0.000000 -0.000001 -0.000000 
28.838501 76.471306 315.361877 -8.236841 7.921711 11.923762 26.410298 -3.658369 -1.821239 3.038256 -0.326115 -3.195821 3.038123 -0.137842 -3.252891 -6.482264 -1.266770 -0.449970 -41.517534 -10.525894 -3.390537 -0.000002 -0.000000 0.000000 0.691220 1.072563 -12.272209 -6.752671 16.403099 -57.358201 -239.225299 -169.905245 -197.330176 3.711727 -22.465011 46.556000 53.725899 -7.252638 7.075989 19.797040 19.882957 -2.278208 -18.897730 -17.115235 11.184990 0.000004 0.000004 0.000004 3.622492 7.890144 -23.373447 2.677851 4.918400 -57.119209 1.910819 4.329546 -47.625523 0.000000 0.000003 0.000003 3.489325 7.199311 -46.474444 4.653080 5.734210 -78.150014 3.626964 5.418037 -67.616236 -0.000002 -0.000001 0.000001 -6.807470 3.871321 -74.536577 5.748487 5.851942 -89.019297 4.269261 5.634880 -74.335080 0.000003 0.000001 0.000000 3.245390 15.822432 -67.438460 6.151973 5.827811 -93.213333 4.584932 5.739302 -77.482807 -0.000001 -0.000000 0.000000 0.187364 -2.268583 2.626433 30.828557 -8.277108 81.013495 -412.325160 49.722869 409.345367 -3.378777 -30.172105 -10.117982 48.185963 -15.612868 -23.088437 18.334687 -9.594920 8.829905 -20.907518 -21.288253 -32.619426 -0.000000 0.000002 0.000002 4.985877 -10.388760 41.230099 2.646585 -4.200728 64.393241 2.102997 -3.895093 56.705088 -0.000002 -0.000002 -0.000000 -6.252718 -6.329098 38.086897 3.602955 -4.536082 76.897671 2.514258 -4.135414 62.573248 0.000004 -0.000001 -0.000001 -7.317014 -2.947636 67.767819 4.253266 -4.638738 85.018766 2.801048 -4.272008 66.489180 0.000002 -0.000002 -0.000000 -7.629738 -3.998928 79.999171 4.029663 -4.614028 82.253468 2.180085 -3.945402 57.828739 -0.000001 0.000002 -0.000000 -34.837609 6.186492 29.782910 62.161634 -18.027857 -6.203745 -17.667831 4.305947 -18.755547 0.486130 -9.455681 4.792333 0.000000 -0.000001 0.000000 -21.431231 8.868486 -44.083926 73.887340 -2.893127 1.166150 -31.846870 -5.468640 16.146620 -1.577705 -1.854928 0.783447 -0.000000 -0.000000 -0.000001 
